<?xml version="1.0" encoding="UTF-8" standalone="no"?>
<!-- Created with Inkscape (http://www.inkscape.org/) -->

<svg
   xmlns:dc="http://purl.org/dc/elements/1.1/"
   xmlns:cc="http://creativecommons.org/ns#"
   xmlns:rdf="http://www.w3.org/1999/02/22-rdf-syntax-ns#"
   xmlns:svg="http://www.w3.org/2000/svg"
   xmlns="http://www.w3.org/2000/svg"
   xmlns:sodipodi="http://sodipodi.sourceforge.net/DTD/sodipodi-0.dtd"
   xmlns:inkscape="http://www.inkscape.org/namespaces/inkscape"
   width="1000"
   height="300"
   id="svg2"
   version="1.1"
   inkscape:version="0.48.4 r9939"
   sodipodi:docname="vehicle_banner.svg">
  <defs
     id="defs4" />
  <sodipodi:namedview
     id="base"
     pagecolor="#ffffff"
     bordercolor="#666666"
     borderopacity="1.0"
     inkscape:pageopacity="0.0"
     inkscape:pageshadow="2"
     inkscape:zoom="1.3187541"
     inkscape:cx="602.35821"
     inkscape:cy="34.094881"
     inkscape:document-units="px"
     inkscape:current-layer="layer1"
     showgrid="true"
     inkscape:window-width="1920"
     inkscape:window-height="1056"
     inkscape:window-x="0"
     inkscape:window-y="24"
     inkscape:window-maximized="1">
    <inkscape:grid
       type="xygrid"
       id="grid2997"
       empspacing="5"
       visible="true"
       enabled="true"
       snapvisiblegridlinesonly="true" />
  </sodipodi:namedview>
  <metadata
     id="metadata7">
    <rdf:RDF>
      <cc:Work
         rdf:about="">
        <dc:format>image/svg+xml</dc:format>
        <dc:type
           rdf:resource="http://purl.org/dc/dcmitype/StillImage" />
        <dc:title></dc:title>
      </cc:Work>
    </rdf:RDF>
  </metadata>
  <g
     inkscape:label="Layer 1"
     inkscape:groupmode="layer"
     id="layer1"
     transform="translate(0,-752.36218)">
    <path
       style="fill:none;stroke:#5e5e5e;stroke-width:1.5;stroke-linecap:butt;stroke-linejoin:miter;stroke-opacity:1;stroke-miterlimit:4;stroke-dasharray:none"
       d="M 332.8296,981.5742 C 360.97997,968.95505 640.19069,969.80858 681.93089,979.5156 682,946.36218 707,916.36218 745.99725,917.21484"
       id="path3025"
       inkscape:connector-curvature="0"
       sodipodi:nodetypes="ccc" />
    <g
       id="g3069"
       transform="matrix(0.97070239,0,0,0.97070239,95.978217,-1.1282068)"
       style="stroke:#5e5e5e;stroke-opacity:1;stroke-width:1.5452728;stroke-miterlimit:4;stroke-dasharray:none">
      <path
         transform="matrix(0.98887515,0,0,0.98887515,40.851146,720.34392)"
         d="m 200.71428,297.14285 c 0,33.13709 -26.86292,60 -60,60 -33.13709,0 -60.000001,-26.86291 -60.000001,-60 0,-33.13708 26.862911,-60 60.000001,-60 33.13708,0 60,26.86292 60,60 z"
         sodipodi:ry="60"
         sodipodi:rx="60"
         sodipodi:cy="297.14285"
         sodipodi:cx="140.71428"
         id="path2995"
         style="fill:none;stroke:#5e5e5e;stroke-width:1.56265713;stroke-miterlimit:4;stroke-opacity:1;stroke-dasharray:none;stroke-dashoffset:0"
         sodipodi:type="arc" />
    </g>
    <g
       style="stroke:#5e5e5e;stroke-width:1.54527283;stroke-miterlimit:4;stroke-opacity:1;stroke-dasharray:none"
       transform="matrix(0.97070239,0,0,0.97070239,570.53633,-5.1868048)"
       id="use3073">
      <path
         sodipodi:type="arc"
         style="fill:none;stroke:#5e5e5e;stroke-width:1.56265712;stroke-miterlimit:4;stroke-opacity:1;stroke-dasharray:none;stroke-dashoffset:0"
         id="path3038"
         sodipodi:cx="140.71428"
         sodipodi:cy="297.14285"
         sodipodi:rx="60"
         sodipodi:ry="60"
         d="m 200.71428,297.14285 c 0,33.13709 -26.86292,60 -60,60 -33.13709,0 -60.000001,-26.86291 -60.000001,-60 0,-33.13708 26.862911,-60 60.000001,-60 33.13708,0 60,26.86292 60,60 z"
         transform="matrix(0.98887515,0,0,0.98887515,40.851146,720.34392)" />
    </g>
    <path
       style="fill:none;stroke:#5e5e5e;stroke-width:1.5;stroke-linecap:butt;stroke-linejoin:miter;stroke-opacity:1;stroke-miterlimit:4;stroke-dasharray:none"
       d="m 808.1222,978.66209 c 14.56053,-9.70704 64.52727,-1.31963 81.12883,-6.85351 14.56054,-4.85353 7.58984,-96.66009 -11.82421,-96.66009 C 867.71979,865.44146 702,860.36218 664.45824,849.79303 659.58076,848.41987 607,790.36218 577.09503,777.96106 c -44.15552,-18.3106 -213.55453,-14.56054 -252.38262,0 -9.70702,2.42675 -51.89049,74.64313 -58.71241,75.40112 -39.7783,4.41981 -72.46619,9.41815 -152.54914,21.55193 -9.27729,7.70842 -24.26756,101.80658 -14.560536,106.66009 6.139256,3.06965 102.894456,0 107.747966,4.85351 C 206,946.36218 233,920.36218 271.61675,920.30274"
       id="path3075"
       inkscape:connector-curvature="0"
       sodipodi:nodetypes="cscsscscscc" />
    <path
       style="fill:none;stroke:#5e5e5e;stroke-width:1.5;stroke-linecap:butt;stroke-linejoin:miter;stroke-opacity:1;stroke-miterlimit:4;stroke-dasharray:none"
       d="M 437.43108,962.36218 437.8412,775.36819 C 438,771.36218 332,776.36218 325,790.47166 l 0,59.29397"
       id="path3083"
       inkscape:connector-curvature="0"
       sodipodi:nodetypes="cccc" />
    <path
       style="fill:none;stroke:#5e5e5e;stroke-width:1.5;stroke-linecap:butt;stroke-linejoin:miter;stroke-opacity:1;stroke-miterlimit:4;stroke-dasharray:none"
       d="m 642.48366,852.70514 -193.28696,0"
       id="path3085"
       inkscape:connector-curvature="0"
       sodipodi:nodetypes="cc" />
    <path
       style="fill:none;stroke:#5e5e5e;stroke-width:1.5;stroke-linecap:butt;stroke-linejoin:miter;stroke-opacity:1;stroke-miterlimit:4;stroke-dasharray:none"
       d="m 430.63616,852.70514 -148.19131,0"
       id="path3087"
       inkscape:connector-curvature="0"
       sodipodi:nodetypes="cc" />
    <path
       style="fill:none;stroke:#5e5e5e;stroke-width:1.5;stroke-linecap:butt;stroke-linejoin:miter;stroke-opacity:1;stroke-miterlimit:4;stroke-dasharray:none"
       d="m 646.92188,856.11218 0,110"
       id="path3093"
       inkscape:connector-curvature="0"
       sodipodi:nodetypes="cc" />
    <path
       style="fill:none;stroke:#5e5e5e;stroke-width:1.5;stroke-linecap:butt;stroke-linejoin:miter;stroke-opacity:1;stroke-miterlimit:4;stroke-dasharray:none"
       d="m 446,962.36218 0,-187 c 0,-5 131,0 137.04751,17.62366 l 0.0475,55.83649"
       id="path3095"
       inkscape:connector-curvature="0"
       sodipodi:nodetypes="cccc" />
    <path
       style="fill:none;stroke:#5e5e5e;stroke-width:1.5;stroke-linecap:butt;stroke-linejoin:miter;stroke-opacity:1;stroke-miterlimit:4;stroke-dasharray:none"
       d="m 461,875.36218 25,0"
       id="path3097"
       inkscape:connector-curvature="0"
       sodipodi:nodetypes="cc" />
    <path
       style="fill:none;stroke:#5e5e5e;stroke-width:1.5;stroke-linecap:butt;stroke-linejoin:miter;stroke-opacity:1;stroke-miterlimit:4;stroke-dasharray:none"
       d="m 588,796.36218 c 3,-1 60,51 59,53"
       id="path3099"
       inkscape:connector-curvature="0" />
    <path
       style="fill:none;stroke:#5e5e5e;stroke-width:1.5;stroke-linecap:butt;stroke-linejoin:miter;stroke-opacity:1;stroke-miterlimit:4;stroke-dasharray:none"
       d="m 445,962.36218 c 62,-3 151,-2 197,3"
       id="path3103"
       inkscape:connector-curvature="0"
       sodipodi:nodetypes="cc" />
    <path
       style="fill:none;stroke:#5e5e5e;stroke-width:1.5;stroke-linecap:butt;stroke-linejoin:miter;stroke-opacity:1;stroke-miterlimit:4;stroke-dasharray:none"
       d="m 322,794.36218 c -11,12 -21,29 -36,54"
       id="path3124"
       inkscape:connector-curvature="0"
       sodipodi:nodetypes="cc" />
  </g>
</svg>
